# xmcd CD database file
#
# Track frame offsets:
#	150
#	22922
#	44920
#
# Disc length: 900 seconds
#
# Revision: 0
# Processed by: cddbd v1.5PL3 Copyright (c) Steve Scherf et al.
# Submitted via: CDex 1.51
#
DISCID=20038203
DTITLE=sacra - イエスタデイ
DYEAR=2004
DGENRE=JPop
TTITLE0=イエスタデイ
TTITLE1=identity
TTITLE2=イエスタデイ (back track)
EXTD=YEAR: 2004
EXTT0=
EXTT1=
EXTT2=
PLAYORDER=
